<?xml version="1.0" encoding="UTF-8"?>
<svg xmlns="http://www.w3.org/2000/svg" xmlns:xlink="http://www.w3.org/1999/xlink" width="75pt" height="75pt" viewBox="0 0 75 75" version="1.1">
<g id="surface1">
<path style=" stroke:none;fill-rule:nonzero;fill:rgb(1.176471%,0.392157%,1.568627%);fill-opacity:1;" d="M 23.316406 32.371094 L 18.515625 43.269531 C 18.398438 43.542969 18.097656 43.714844 17.773438 43.714844 L 15.316406 43.714844 C 14.992188 43.714844 14.695312 43.539062 14.578125 43.269531 L 12.300781 38.066406 C 12.078125 37.554688 11.878906 37.0625 11.6875 36.578125 C 11.476562 37.113281 11.257812 37.613281 11.042969 38.089844 L 8.640625 43.285156 C 8.519531 43.546875 8.222656 43.714844 7.902344 43.714844 L 5.445312 43.714844 C 5.109375 43.714844 4.8125 43.53125 4.699219 43.257812 L 0.207031 32.355469 C 0.121094 32.144531 0.15625 31.90625 0.304688 31.71875 C 0.457031 31.53125 0.695312 31.421875 0.957031 31.421875 L 3.722656 31.421875 C 4.070312 31.421875 4.378906 31.621094 4.480469 31.910156 L 6.453125 37.449219 C 6.617188 37.917969 6.769531 38.355469 6.910156 38.777344 C 7.082031 38.355469 7.269531 37.914062 7.472656 37.441406 L 9.898438 31.871094 C 10.019531 31.597656 10.3125 31.421875 10.636719 31.421875 L 12.921875 31.421875 C 13.253906 31.421875 13.550781 31.601562 13.667969 31.875 L 15.96875 37.328125 C 16.175781 37.816406 16.363281 38.277344 16.53125 38.710938 C 16.671875 38.300781 16.835938 37.855469 17.023438 37.367188 L 19.152344 31.894531 C 19.261719 31.609375 19.566406 31.417969 19.902344 31.417969 L 22.574219 31.417969 C 22.832031 31.417969 23.078125 31.53125 23.226562 31.71875 C 23.378906 31.917969 23.410156 32.15625 23.316406 32.371094 Z M 49.050781 32.371094 L 44.253906 43.269531 C 44.136719 43.542969 43.835938 43.714844 43.515625 43.714844 L 41.050781 43.714844 C 40.726562 43.714844 40.429688 43.539062 40.3125 43.269531 L 38.035156 38.066406 C 37.808594 37.554688 37.609375 37.0625 37.417969 36.578125 C 37.210938 37.113281 36.992188 37.613281 36.777344 38.089844 L 34.375 43.285156 C 34.25 43.546875 33.960938 43.714844 33.636719 43.714844 L 31.175781 43.714844 C 30.84375 43.714844 30.542969 43.53125 30.429688 43.257812 L 25.941406 32.355469 C 25.851562 32.144531 25.886719 31.90625 26.035156 31.71875 C 26.183594 31.535156 26.429688 31.421875 26.6875 31.421875 L 29.453125 31.421875 C 29.800781 31.421875 30.105469 31.621094 30.210938 31.910156 L 32.179688 37.449219 C 32.34375 37.917969 32.5 38.355469 32.644531 38.777344 C 32.816406 38.355469 33 37.914062 33.199219 37.441406 L 35.628906 31.871094 C 35.746094 31.597656 36.042969 31.421875 36.371094 31.421875 L 38.652344 31.421875 C 38.984375 31.421875 39.28125 31.601562 39.398438 31.875 L 41.703125 37.328125 C 41.90625 37.816406 42.09375 38.277344 42.261719 38.710938 C 42.40625 38.300781 42.566406 37.855469 42.753906 37.367188 L 44.882812 31.894531 C 44.992188 31.609375 45.296875 31.417969 45.636719 31.417969 L 48.304688 31.417969 C 48.570312 31.417969 48.816406 31.53125 48.960938 31.71875 C 49.113281 31.917969 49.148438 32.15625 49.050781 32.371094 Z M 74.785156 32.371094 L 69.988281 43.269531 C 69.867188 43.542969 69.574219 43.714844 69.25 43.714844 L 66.789062 43.714844 C 66.464844 43.714844 66.164062 43.539062 66.050781 43.269531 L 63.773438 38.066406 C 63.546875 37.554688 63.347656 37.0625 63.15625 36.578125 C 62.945312 37.113281 62.722656 37.613281 62.511719 38.089844 L 60.105469 43.285156 C 59.984375 43.546875 59.691406 43.714844 59.371094 43.714844 L 56.910156 43.714844 C 56.574219 43.714844 56.277344 43.53125 56.160156 43.257812 L 51.671875 32.355469 C 51.589844 32.144531 51.617188 31.90625 51.769531 31.71875 C 51.917969 31.53125 52.160156 31.421875 52.417969 31.421875 L 55.191406 31.421875 C 55.539062 31.421875 55.84375 31.621094 55.945312 31.910156 L 57.917969 37.449219 C 58.082031 37.917969 58.234375 38.355469 58.378906 38.777344 C 58.550781 38.355469 58.734375 37.914062 58.933594 37.441406 L 61.363281 31.871094 C 61.480469 31.597656 61.777344 31.421875 62.105469 31.421875 L 64.386719 31.421875 C 64.71875 31.421875 65.015625 31.601562 65.132812 31.875 L 67.433594 37.328125 C 67.640625 37.816406 67.828125 38.277344 67.996094 38.710938 C 68.140625 38.300781 68.304688 37.855469 68.492188 37.367188 L 70.621094 31.894531 C 70.730469 31.609375 71.03125 31.417969 71.371094 31.417969 L 74.042969 31.417969 C 74.308594 31.417969 74.550781 31.53125 74.699219 31.71875 C 74.84375 31.917969 74.878906 32.15625 74.785156 32.371094 Z M 74.785156 32.371094 "/>
<path style=" stroke:none;fill-rule:nonzero;fill:rgb(1.176471%,0.392157%,1.568627%);fill-opacity:1;" d="M 7.816406 25.964844 C 8.632812 23.890625 9.65625 21.917969 10.867188 20.085938 C 11.042969 20.121094 11.210938 20.191406 11.398438 20.191406 L 16.824219 20.191406 C 16.246094 22.023438 15.800781 23.96875 15.410156 25.964844 L 21.335938 25.964844 C 21.785156 23.945312 22.304688 21.992188 22.960938 20.191406 L 51.765625 20.191406 C 52.417969 21.992188 52.941406 23.945312 53.386719 25.964844 L 59.316406 25.964844 C 58.925781 23.96875 58.472656 22.023438 57.898438 20.191406 L 63.324219 20.191406 C 63.511719 20.191406 63.675781 20.121094 63.859375 20.085938 C 65.066406 21.917969 66.089844 23.890625 66.90625 25.964844 L 73.027344 25.964844 C 68.148438 10.917969 54.011719 0 37.363281 0 C 20.714844 0 6.578125 10.917969 1.695312 25.964844 Z M 59.070312 14.421875 L 55.644531 14.421875 C 54.898438 12.855469 54.082031 11.394531 53.1875 10.039062 C 55.324219 11.277344 57.289062 12.746094 59.070312 14.421875 Z M 37.363281 5.769531 C 41.835938 5.769531 45.964844 9.097656 49.078125 14.421875 L 25.644531 14.421875 C 28.757812 9.097656 32.886719 5.769531 37.363281 5.769531 Z M 21.527344 10.039062 C 20.640625 11.394531 19.820312 12.855469 19.074219 14.421875 L 15.652344 14.421875 C 17.433594 12.746094 19.402344 11.277344 21.527344 10.039062 Z M 21.527344 10.039062 "/>
<path style=" stroke:none;fill-rule:nonzero;fill:rgb(1.176471%,0.392157%,1.568627%);fill-opacity:1;" d="M 66.90625 49.035156 C 66.089844 51.113281 65.066406 53.078125 63.855469 54.914062 C 63.675781 54.878906 63.511719 54.808594 63.324219 54.808594 L 57.894531 54.808594 C 58.472656 52.976562 58.921875 51.03125 59.3125 49.035156 L 53.382812 49.035156 C 52.941406 51.054688 52.414062 53.011719 51.761719 54.808594 L 22.960938 54.808594 C 22.304688 53.011719 21.785156 51.054688 21.335938 49.035156 L 15.414062 49.035156 C 15.800781 51.03125 16.25 52.976562 16.824219 54.808594 L 11.398438 54.808594 C 11.210938 54.808594 11.042969 54.878906 10.867188 54.914062 C 9.65625 53.078125 8.632812 51.113281 7.816406 49.035156 L 1.695312 49.035156 C 6.578125 64.082031 20.714844 75 37.363281 75 C 54.011719 75 68.148438 64.082031 73.027344 49.035156 Z M 15.652344 60.578125 L 19.078125 60.578125 C 19.824219 62.144531 20.644531 63.609375 21.53125 64.960938 C 19.402344 63.722656 17.433594 62.253906 15.652344 60.578125 Z M 37.363281 69.230469 C 32.886719 69.230469 28.757812 65.902344 25.644531 60.578125 L 49.074219 60.578125 C 45.964844 65.902344 41.835938 69.230469 37.363281 69.230469 Z M 53.191406 64.960938 C 54.085938 63.609375 54.902344 62.144531 55.644531 60.578125 L 59.074219 60.578125 C 57.289062 62.253906 55.324219 63.722656 53.191406 64.960938 Z M 53.191406 64.960938 "/>
</g>
</svg>
